<svg xmlns="http://www.w3.org/2000/svg" width="212" height="43" viewBox="0 0 212 43" fill="none"><g clip-path="url(#clip0)"><path fill-rule="evenodd" clip-rule="evenodd" d="M6.79688 36.2231V14.9095V14.0168L7.55363 13.5814C7.56182 13.5759 7.56729 13.5732 7.57002 13.5677L18.5306 7.26703C18.5388 7.26431 18.5443 7.25887 18.5498 7.25615L19.2246 6.86694C19.4677 6.8996 19.6043 6.97309 19.607 6.97309L31.0375 13.565L31.043 13.5705C31.5348 13.8535 31.8189 14.3407 31.8189 14.9068V27.5082V27.8294C31.7315 28.2567 31.4747 28.6187 31.0785 28.8473L20.6342 34.3043L19.5742 34.914C19.2847 35.08 19.1207 35.3658 19.1207 35.6978V42.9947" fill="url(#paint0_linear)"></path><path fill-rule="evenodd" clip-rule="evenodd" d="M6.69336 14.0004L18.8642 20.3419C19.0227 20.4236 19.2139 20.4236 19.3724 20.3365L31.4995 13.7718L19.315 6.78247L6.69336 14.0004Z" fill="white"></path><path fill-rule="evenodd" clip-rule="evenodd" d="M19.1211 42.9999L20.9706 41.9384L31.8575 36.2283L32.688 32.1185L31.8575 27.5134C31.8575 28.0823 31.5734 28.5694 31.0816 28.8525L20.6373 34.3095L19.5773 34.9192C19.2877 35.0852 19.1238 35.3709 19.1238 35.703V42.9999H19.1211Z" fill="url(#paint1_linear)"></path><path fill-rule="evenodd" clip-rule="evenodd" d="M31.8191 36.2256L35.2941 34.2252C37.4059 33.0086 38.6135 30.9265 38.6135 28.4933V21.2128V17.9277C38.6135 17.9277 25.5711 7.91731 25.5684 7.91187L31.0459 13.5757C31.5377 13.8588 31.8218 14.3459 31.8218 14.9121V27.5135V36.2256H31.8191Z" fill="url(#paint2_linear)"></path><path fill-rule="evenodd" clip-rule="evenodd" d="M22.6285 0.908941C20.514 -0.304933 18.0989 -0.304933 15.9871 0.908941L9.37305 5.51949L17.3668 7.46277C18.73 6.49113 19.6015 6.97559 19.6097 6.97831L31.0457 13.573C31.0511 13.5784 31.0593 13.5811 31.0648 13.5866L38.6159 17.9304V13.9295C38.6159 11.499 37.4084 9.41423 35.2966 8.19763L28.9639 4.55601L22.6285 0.908941Z" fill="url(#paint3_linear)"></path><path fill-rule="evenodd" clip-rule="evenodd" d="M0 17.9272L7.55387 13.5834C7.56206 13.5779 7.56753 13.5752 7.57026 13.5698L18.5309 7.26632C18.5391 7.2636 18.5445 7.25816 18.55 7.25544L26.1066 2.91162L22.6288 0.908452C20.5143 -0.305422 18.0992 -0.305422 15.9874 0.908452L9.65201 4.5528L3.31933 8.19442C1.20753 9.41101 0 11.4958 0 13.9263V17.9272Z" fill="url(#paint4_linear)"></path><path fill-rule="evenodd" clip-rule="evenodd" d="M6.79711 6.19727L3.31933 8.19499C1.20753 9.41158 0 11.4964 0 13.9269V21.2128V28.4961C0 30.9265 1.20753 33.0114 3.31933 34.228L6.79711 36.2257V14.9094V6.19727Z" fill="#74D5DE"></path><path d="M55.6219 17.3617H51.3491L50.6115 19.3894H48.1445L52.3545 8.69043H54.5482L58.8921 19.3894H56.3705L55.6219 17.3617ZM52.0731 15.345H54.8897L53.4746 11.521L52.0731 15.345Z" fill="#1E266D"></path><path d="M62.6172 19.6234C60.5382 19.6234 59.1476 18.4422 59.1367 16.6731H61.3196C61.3305 17.4079 61.896 17.7753 62.6992 17.7753C63.3221 17.7753 63.8767 17.495 63.8767 16.9425C63.8767 16.3791 63.1582 16.2077 62.2812 16.0607C60.9589 15.8402 59.2733 15.4891 59.2733 13.5431C59.2733 11.9809 60.6065 10.9031 62.6063 10.9031C64.6061 10.9031 65.9202 12.0108 65.9284 13.6601H63.8029C63.7947 13.0042 63.333 12.6803 62.5517 12.6803C61.855 12.6803 61.4425 12.9988 61.4425 13.4724C61.4425 14.0221 62.1501 14.1501 63.0106 14.3052C64.363 14.5474 66.0868 14.8332 66.0868 16.8418C66.0923 18.5293 64.7099 19.6261 62.6172 19.6234Z" fill="#1E266D"></path><path d="M70.4239 19.6234C68.3449 19.6234 66.9543 18.4422 66.9434 16.6731H69.1262C69.1371 17.4079 69.7026 17.7753 70.5058 17.7753C71.1287 17.7753 71.6833 17.495 71.6833 16.9425C71.6833 16.3791 70.9648 16.2077 70.0879 16.0607C68.7656 15.8402 67.08 15.4891 67.08 13.5431C67.08 11.9809 68.4132 10.9031 70.413 10.9031C72.4128 10.9031 73.7268 12.0108 73.735 13.6601H71.6096C71.6014 13.0042 71.1397 12.6803 70.3583 12.6803C69.6617 12.6803 69.2491 12.9988 69.2491 13.4724C69.2491 14.0221 69.9567 14.1501 70.8173 14.3052C72.1696 14.5474 73.8935 14.8332 73.8935 16.8418C73.8989 18.5293 72.5166 19.6261 70.4239 19.6234Z" fill="#1E266D"></path><path d="M74.7461 15.2659C74.7461 12.762 76.6585 10.9058 79.2238 10.9058C81.7782 10.9058 83.7015 12.7647 83.7015 15.2659C83.7015 17.7535 81.7754 19.6261 79.2238 19.6261C76.6585 19.6261 74.7461 17.7535 74.7461 15.2659ZM81.4312 15.2659C81.4312 13.9296 80.516 13.0042 79.2238 13.0042C77.9316 13.0042 77.0164 13.9296 77.0164 15.2659C77.0164 16.6023 77.9316 17.5276 79.2238 17.5276C80.516 17.5276 81.4312 16.6023 81.4312 15.2659Z" fill="#1E266D"></path><path d="M88.918 19.6234C86.4264 19.6234 84.5195 17.7127 84.5195 15.2387C84.5195 12.7647 86.4128 10.9031 88.9316 10.9031C91.0762 10.9031 92.7427 12.2585 93.1443 14.2889H90.9205C90.5572 13.4778 89.8113 13.0015 88.918 13.0015C87.7023 13.0015 86.7898 13.9731 86.7898 15.2523C86.7898 16.5315 87.7187 17.5277 88.918 17.5277C89.8223 17.5277 90.538 17.0269 90.9178 16.1451H93.1744C92.781 18.2163 91.0844 19.6261 88.918 19.6234Z" fill="#1E266D"></path><path d="M94.4023 11.1371H96.6426V19.3893H94.4023V11.1371ZM94.4078 7.96362H96.6398V10.0376H94.4078V7.96362Z" fill="#1E266D"></path><path d="M106.98 11.1262V19.3784H105.223L105.032 18.6408C104.322 19.2614 103.393 19.6261 102.347 19.6261C99.855 19.6261 98 17.7508 98 15.2523C98 12.7647 99.8523 10.9058 102.347 10.9058C103.409 10.9058 104.352 11.2786 105.068 11.9155L105.308 11.1262H106.98ZM104.783 15.2523C104.783 13.9568 103.83 12.9906 102.527 12.9906C101.226 12.9906 100.268 13.9595 100.268 15.2523C100.268 16.5451 101.224 17.514 102.527 17.514C103.83 17.514 104.783 16.5478 104.783 15.2523Z" fill="#1E266D"></path><path d="M113.952 17.4053V19.3921H112.359C110.537 19.3921 109.417 18.2762 109.417 16.4445V12.9308H107.92V12.4491L111.193 8.98438H111.622V11.1372H113.908V12.9308H111.66V16.1479C111.66 16.9453 112.119 17.4053 112.936 17.4053H113.952Z" fill="#1E266D"></path><path d="M115.234 11.1371H117.475V19.3893H115.234V11.1371ZM115.24 7.96362H117.472V10.0376H115.24V7.96362Z" fill="#1E266D"></path><path d="M118.832 15.2659C118.832 12.762 120.744 10.9058 123.31 10.9058C125.864 10.9058 127.787 12.7647 127.787 15.2659C127.787 17.7535 125.861 19.6261 123.31 19.6261C120.744 19.6261 118.832 17.7535 118.832 15.2659ZM125.52 15.2659C125.52 13.9296 124.605 13.0042 123.312 13.0042C122.02 13.0042 121.105 13.9296 121.105 15.2659C121.105 16.6023 122.02 17.5276 123.312 17.5276C124.605 17.5276 125.52 16.6023 125.52 15.2659Z" fill="#1E266D"></path><path d="M136.931 14.3895V19.392H134.69V14.7515C134.69 13.505 134.215 12.9008 133.245 12.9008C132.09 12.9008 131.385 13.7255 131.385 15.0536V19.392H129.145V11.1371H130.683L131.12 12.1578C131.745 11.4147 132.737 10.9412 133.865 10.9412C135.756 10.9412 136.931 12.2993 136.931 14.3895Z" fill="#1E266D"></path><path d="M141.613 15.2659C141.613 12.762 143.526 10.9058 146.091 10.9058C148.645 10.9058 150.569 12.7647 150.569 15.2659C150.569 17.7535 148.643 19.6261 146.091 19.6261C143.526 19.6261 141.613 17.7535 141.613 15.2659ZM148.298 15.2659C148.298 13.9296 147.383 13.0042 146.091 13.0042C144.799 13.0042 143.884 13.9296 143.884 15.2659C143.884 16.6023 144.799 17.5276 146.091 17.5276C147.383 17.5276 148.298 16.6023 148.298 15.2659Z" fill="#1E266D"></path><path d="M156.847 13.0886H154.762V19.392H152.522V13.0886H151.088V11.2487H152.536V10.5002C152.536 8.92165 153.424 7.90918 155.164 7.90918H156.83V9.66467H155.612C155.022 9.66467 154.702 9.96678 154.702 10.5547V11.246H156.844L156.847 13.0886Z" fill="#1E266D"></path><path d="M56.6207 28.6104C56.6207 30.7197 54.987 32.2901 52.8288 32.2901H51.0202V35.6296H48.6953V24.9307H52.8288C54.9815 24.9307 56.6207 26.4984 56.6207 28.6104ZM54.2658 28.6104C54.2658 27.7204 53.6483 27.0754 52.7277 27.0754H51.0202V30.1454H52.7277C53.6483 30.1454 54.2658 29.4977 54.2658 28.6104Z" fill="#1E266D"></path><path d="M62.8128 27.3313V29.4352H61.8402C60.578 29.4352 60.0781 29.9931 60.0781 31.3431V35.6297H57.8379V27.3776H59.2749L59.6738 28.39C60.2639 27.6606 61.0124 27.334 62.0751 27.334H62.8128V27.3313Z" fill="#1E266D"></path><path d="M63.1074 31.5037C63.1074 28.9997 65.0198 27.1436 67.5851 27.1436C70.1395 27.1436 72.0628 29.0025 72.0628 31.5037C72.0628 33.9913 70.1368 35.8638 67.5851 35.8638C65.0198 35.8638 63.1074 33.9913 63.1074 31.5037ZM69.7953 31.5037C69.7953 30.1674 68.88 29.242 67.5878 29.242C66.2956 29.242 65.3804 30.1674 65.3804 31.5037C65.3804 32.84 66.2956 33.7654 67.5878 33.7654C68.8773 33.7654 69.7953 32.84 69.7953 31.5037Z" fill="#1E266D"></path><path d="M81.7515 24.4001V35.6271H80.096L79.831 34.9412C79.1343 35.5319 78.241 35.8748 77.2356 35.8748C74.7222 35.8748 72.8809 33.9995 72.8809 31.501C72.8809 28.9998 74.7222 27.1409 77.2356 27.1409C78.0907 27.1409 78.8666 27.3886 79.5086 27.824V24.4001H81.7515ZM79.678 31.5038C79.678 30.211 78.7218 29.242 77.4186 29.242C76.1182 29.242 75.162 30.2082 75.162 31.5038C75.162 32.7993 76.1155 33.7655 77.4186 33.7655C78.7218 33.7655 79.678 32.7938 79.678 31.5038Z" fill="#1E266D"></path><path d="M83.2695 32.1432V27.3748H85.5097V31.89C85.5097 33.0631 86.1326 33.7653 87.168 33.7653C88.2062 33.7653 88.8127 33.0495 88.8127 31.89V27.3748H91.0529V32.1432C91.0529 34.3722 89.5093 35.861 87.168 35.861C84.8268 35.8637 83.2695 34.3722 83.2695 32.1432Z" fill="#1E266D"></path><path d="M96.7031 35.8638C94.2116 35.8638 92.3047 33.9532 92.3047 31.4792C92.3047 29.0052 94.1979 27.1436 96.7168 27.1436C98.8614 27.1436 100.528 28.499 100.929 30.5293H98.7057C98.3423 29.7183 97.5965 29.242 96.7031 29.242C95.4874 29.242 94.5749 30.2136 94.5749 31.4928C94.5749 32.772 95.5038 33.7681 96.7031 33.7681C97.6074 33.7681 98.3232 33.2674 98.7029 32.3855H100.96C100.566 34.454 98.8696 35.8638 96.7031 35.8638Z" fill="#1E266D"></path><path d="M107.214 33.6428V35.6297H105.621C103.799 35.6297 102.679 34.5138 102.679 32.6821V29.1684H101.182V28.6866L104.455 25.2219H104.883V27.3748H107.17V29.1684H104.922V32.3854C104.922 33.1829 105.381 33.6428 106.198 33.6428H107.214Z" fill="#1E266D"></path><path d="M119.994 28.6104C119.994 30.7197 118.36 32.2901 116.202 32.2901H114.393V35.6296H112.068V24.9307H116.202C118.357 24.9307 119.994 26.4984 119.994 28.6104ZM117.639 28.6104C117.639 27.7204 117.021 27.0754 116.101 27.0754H114.393V30.1454H116.101C117.024 30.1454 117.639 29.4977 117.639 28.6104Z" fill="#1E266D"></path><path d="M126.186 27.3313V29.4352H125.213C123.951 29.4352 123.451 29.9931 123.451 31.3431V35.6297H121.211V27.3776H122.648L123.047 28.39C123.637 27.6606 124.385 27.334 125.448 27.334H126.186V27.3313Z" fill="#1E266D"></path><path d="M126.482 31.5037C126.482 28.9997 128.395 27.1436 130.96 27.1436C133.514 27.1436 135.438 29.0025 135.438 31.5037C135.438 33.9913 133.512 35.8638 130.96 35.8638C128.395 35.8638 126.482 33.9913 126.482 31.5037ZM133.17 31.5037C133.17 30.1674 132.255 29.242 130.963 29.242C129.671 29.242 128.755 30.1674 128.755 31.5037C128.755 32.84 129.671 33.7654 130.963 33.7654C132.255 33.7654 133.17 32.84 133.17 31.5037Z" fill="#1E266D"></path><path d="M141.718 29.3264H139.633V35.6298H137.393V29.3264H135.959V27.4865H137.407V26.738C137.407 25.1594 138.295 24.147 140.035 24.147H141.702V25.9025H140.483C139.893 25.9025 139.573 26.2046 139.573 26.7925V27.4838H141.715L141.718 29.3264Z" fill="#1E266D"></path><path d="M150.596 32.1268H144.326C144.52 33.2535 145.263 33.8741 146.35 33.8741C147.129 33.8741 147.768 33.5067 148.107 32.9161H150.462C149.858 34.7151 148.273 35.8609 146.35 35.8609C143.905 35.8609 142.053 33.9748 142.053 31.5008C142.053 29.0159 143.891 27.1406 146.35 27.1406C148.894 27.1406 150.639 29.0948 150.639 31.4708C150.637 31.6913 150.623 31.909 150.596 32.1268ZM144.383 30.6026H148.396C148.079 29.5929 147.353 29.0458 146.347 29.0458C145.353 29.0458 144.643 29.6255 144.383 30.6026Z" fill="#1E266D"></path><path d="M154.926 35.8609C152.847 35.8609 151.456 34.6797 151.445 32.9106H153.628C153.639 33.6455 154.205 34.0129 155.008 34.0129C155.631 34.0129 156.185 33.7326 156.185 33.1801C156.185 32.6167 155.467 32.4452 154.59 32.2982C153.268 32.0778 151.582 31.7267 151.582 29.7807C151.582 28.2184 152.915 27.1406 154.915 27.1406C156.915 27.1406 158.229 28.2484 158.237 29.8977H156.112C156.103 29.2418 155.642 28.9179 154.86 28.9179C154.164 28.9179 153.751 29.2363 153.751 29.7099C153.751 30.2597 154.459 30.3876 155.319 30.5427C156.672 30.785 158.395 31.0707 158.395 33.0794C158.401 34.7668 157.019 35.8636 154.926 35.8609Z" fill="#1E266D"></path><path d="M162.736 35.8609C160.657 35.8609 159.267 34.6797 159.256 32.9106H161.439C161.45 33.6455 162.015 34.0129 162.818 34.0129C163.441 34.0129 163.996 33.7326 163.996 33.1801C163.996 32.6167 163.277 32.4452 162.4 32.2982C161.078 32.0778 159.392 31.7267 159.392 29.7807C159.392 28.2184 160.726 27.1406 162.725 27.1406C164.725 27.1406 166.039 28.2484 166.048 29.8977H163.922C163.914 29.2418 163.452 28.9179 162.671 28.9179C161.974 28.9179 161.562 29.2363 161.562 29.7099C161.562 30.2597 162.269 30.3876 163.13 30.5427C164.482 30.785 166.206 31.0707 166.206 33.0794C166.209 34.7668 164.826 35.8636 162.736 35.8609Z" fill="#1E266D"></path><path d="M167.6 27.3749H169.84V35.6271H167.6V27.3749ZM167.605 24.2014H169.837V26.2753H167.605V24.2014Z" fill="#1E266D"></path><path d="M171.197 31.5037C171.197 28.9997 173.11 27.1436 175.675 27.1436C178.229 27.1436 180.153 29.0025 180.153 31.5037C180.153 33.9913 178.227 35.8638 175.675 35.8638C173.11 35.8638 171.197 33.9913 171.197 31.5037ZM177.885 31.5037C177.885 30.1674 176.97 29.242 175.678 29.242C174.385 29.242 173.47 30.1674 173.47 31.5037C173.47 32.84 174.385 33.7654 175.678 33.7654C176.97 33.7654 177.885 32.84 177.885 31.5037Z" fill="#1E266D"></path><path d="M189.298 30.6273V35.6298H187.058V30.9893C187.058 29.7428 186.582 29.1385 185.612 29.1385C184.457 29.1385 183.752 29.9632 183.752 31.2914V35.6298H181.512V27.3776H183.05L183.487 28.3982C184.113 27.6552 185.104 27.1816 186.233 27.1816C188.123 27.1789 189.298 28.537 189.298 30.6273Z" fill="#1E266D"></path><path d="M199.537 27.364V35.6162H197.78L197.589 34.8786C196.878 35.4991 195.95 35.8638 194.903 35.8638C192.412 35.8638 190.557 33.9886 190.557 31.4901C190.557 29.0025 192.409 27.1436 194.903 27.1436C195.966 27.1436 196.908 27.5164 197.624 28.1533L197.865 27.364H199.537ZM197.343 31.4901C197.343 30.1946 196.389 29.2284 195.086 29.2284C193.786 29.2284 192.827 30.1973 192.827 31.4901C192.827 32.7829 193.783 33.7518 195.086 33.7518C196.387 33.7518 197.343 32.7856 197.343 31.4901Z" fill="#1E266D"></path><path d="M201.441 24.4001H203.682V35.6271H201.441V24.4001Z" fill="#1E266D"></path><path d="M208.525 35.8609C206.446 35.8609 205.056 34.6797 205.045 32.9106H207.228C207.239 33.6455 207.804 34.0129 208.607 34.0129C209.23 34.0129 209.785 33.7326 209.785 33.1801C209.785 32.6167 209.066 32.4452 208.189 32.2982C206.867 32.0778 205.182 31.7267 205.182 29.7807C205.182 28.2184 206.515 27.1406 208.515 27.1406C210.514 27.1406 211.828 28.2484 211.837 29.8977H209.711C209.703 29.2418 209.241 28.9179 208.46 28.9179C207.763 28.9179 207.351 29.2363 207.351 29.7099C207.351 30.2597 208.058 30.3876 208.919 30.5427C210.271 30.785 211.995 31.0707 211.995 33.0794C212 34.7668 210.618 35.8636 208.525 35.8609Z" fill="#1E266D"></path></g><defs><linearGradient id="paint0_linear" x1="6.00534" y1="35.4355" x2="29.447" y2="11.9054" gradientUnits="userSpaceOnUse"><stop offset="0.4589" stop-color="#1E266D"></stop><stop offset="0.8575" stop-color="#4D548C"></stop></linearGradient><linearGradient id="paint1_linear" x1="19.1289" y1="38.3398" x2="32.8479" y2="32.0319" gradientUnits="userSpaceOnUse"><stop offset="0.5396" stop-color="#74D5DE"></stop><stop offset="1" stop-color="#00A0AF"></stop></linearGradient><linearGradient id="paint2_linear" x1="32.2324" y1="30.1141" x2="32.2324" y2="14.2468" gradientUnits="userSpaceOnUse"><stop offset="0.6464" stop-color="#74D5DE"></stop><stop offset="1" stop-color="#00A0AF"></stop></linearGradient><linearGradient id="paint3_linear" x1="32.0943" y1="14.9199" x2="18.2446" y2="3.27615" gradientUnits="userSpaceOnUse"><stop offset="0.5396" stop-color="#74D5DE"></stop><stop offset="1" stop-color="#00A0AF"></stop></linearGradient><linearGradient id="paint4_linear" x1="0" y1="8.96294" x2="26.1063" y2="8.96294" gradientUnits="userSpaceOnUse"><stop stop-color="#00A0AF"></stop><stop offset="0.4604" stop-color="#74D5DE"></stop></linearGradient><clipPath id="clip0"><rect width="212" height="43" fill="white"></rect></clipPath></defs></svg>